<?xml version="1.0" encoding="UTF-8" standalone="no"?>
<!-- Created with Inkscape (http://www.inkscape.org/) -->

<svg
   width="19.57387mm"
   height="58.929752mm"
   viewBox="0 0 19.57387 58.929752"
   version="1.1"
   id="svg1"
   xmlns:inkscape="http://www.inkscape.org/namespaces/inkscape"
   xmlns:sodipodi="http://sodipodi.sourceforge.net/DTD/sodipodi-0.dtd"
   xmlns="http://www.w3.org/2000/svg"
   xmlns:svg="http://www.w3.org/2000/svg">
  <sodipodi:namedview
     id="namedview1"
     pagecolor="#ffffff"
     bordercolor="#000000"
     borderopacity="0.25"
     inkscape:showpageshadow="2"
     inkscape:pageopacity="0.0"
     inkscape:pagecheckerboard="0"
     inkscape:deskcolor="#d1d1d1"
     inkscape:document-units="mm"
     showguides="false">
    <inkscape:page
       x="0"
       y="0"
       width="19.57387"
       height="58.929752"
       id="page2"
       margin="0"
       bleed="0" />
  </sodipodi:namedview>
  <defs
     id="defs1">
    <clipPath
       clipPathUnits="userSpaceOnUse"
       id="clipPath8-5">
      <path
         d="M 0,800 H 800 V 0 H 0 Z"
         transform="translate(-591.71242,-457.18801)"
         id="path8-6" />
    </clipPath>
    <clipPath
       clipPathUnits="userSpaceOnUse"
       id="clipPath10-2">
      <path
         d="M 0,800 H 800 V 0 H 0 Z"
         transform="translate(-631.43801,-545.09721)"
         id="path10-9" />
    </clipPath>
    <clipPath
       clipPathUnits="userSpaceOnUse"
       id="clipPath12-1">
      <path
         d="M 0,800 H 800 V 0 H 0 Z"
         transform="translate(-588.71242,-459.18801)"
         id="path12-2" />
    </clipPath>
  </defs>
  <g
     inkscape:label="Layer 1"
     inkscape:groupmode="layer"
     id="layer1"
     transform="translate(-155.74953,-114.2594)">
    <g
       id="g4">
      <path
         id="path7-9"
         d="M 0,0 H 45.935 V 22.032 H 0 Z"
         style="fill:#483737;fill-opacity:1;fill-rule:nonzero;stroke:none"
         transform="matrix(0.35277776,0,0,-0.35277776,158.49237,169.60565)"
         clip-path="url(#clipPath8-5)" />
      <path
         id="path9-3"
         d="m 0,0 c -1.83,1.848 -3.697,3.733 -5.017,5.903 -4.5,7.4 -5.246,18.366 -5.367,21.55 l -10e-4,21.313 H -23.132 V 27.491 c -0.123,-3.224 -0.872,-14.193 -5.368,-21.588 -1.321,-2.172 -3.191,-4.06 -5,-5.886 -3.097,-3.123 -6.005,-6.056 -6.227,-10.116 V -24.901 H 6.209 v 14.857 C 5.989,-6.038 3.08,-3.105 0,0"
         style="fill:#483737;fill-opacity:1;fill-rule:nonzero;stroke:none"
         transform="matrix(0.35277776,0,0,-0.35277776,172.50667,138.59323)"
         clip-path="url(#clipPath10-2)" />
      <path
         id="path11-6"
         d="M 0,0 V 22.032 H 45.935 V 0 Z M 41.41,-7.383 H 4.523 c -1.795,0 -3.368,1.045 -4.094,2.608 H 45.505 C 44.779,-6.338 43.207,-7.383 41.41,-7.383 M 6.225,87.926 c 1.809,1.826 3.68,3.715 5.001,5.887 4.496,7.394 5.245,18.363 5.368,21.587 l -0.001,21.275 H 29.34 l 0.001,-21.313 c 0.122,-3.184 0.868,-14.15 5.368,-21.549 1.319,-2.17 3.187,-4.056 5.017,-5.904 3.08,-3.105 5.988,-6.038 6.209,-10.044 V 63.008 H -0.001 v 14.803 c 0.221,4.059 3.129,6.992 6.226,10.115 m 44.482,-9.903 c -0.302,5.899 -4.173,9.803 -7.59,13.249 -1.693,1.707 -3.291,3.318 -4.327,5.021 -3.894,6.403 -4.563,16.333 -4.675,19.186 v 25.678 c 0.03,1.344 -0.278,2.368 -0.915,3.047 -0.788,0.839 -1.89,1.048 -2.555,1.094 l 2.961,9.589 H 12.328 l 2.961,-9.589 c -0.665,-0.046 -1.767,-0.256 -2.555,-1.094 -0.637,-0.679 -0.945,-1.703 -0.916,-3.024 l 0.001,-25.663 C 11.708,112.628 11.042,102.702 7.145,96.293 6.112,94.595 4.512,92.981 2.815,91.271 -0.6,87.826 -4.47,83.922 -4.775,77.938 V -2.857 c 0,-5.129 4.171,-9.301 9.298,-9.301 H 41.41 c 5.128,0 9.3,4.172 9.3,9.301 z"
         style="fill:#3c2415;fill-opacity:1;fill-rule:nonzero;stroke:none"
         transform="matrix(0.35277776,0,0,-0.35277776,157.43403,168.90009)"
         clip-path="url(#clipPath12-1)" />
      <rect
         style="fill:#0090ff;fill-opacity:1;stroke-width:0.310523"
         id="rect1-0"
         width="16.260433"
         height="14.412783"
         x="157.44063"
         y="146.69641"
         ry="0" />
      <text
         xml:space="preserve"
         style="font-size:7.94721px;text-align:start;writing-mode:lr-tb;direction:ltr;text-anchor:start;fill:#ffffff;fill-opacity:1;stroke-width:0.662266"
         x="159.35654"
         y="156.64505"
         id="text1-6"><tspan
           sodipodi:role="line"
           id="tspan1-2"
           style="fill:#ffffff;stroke-width:0.662266"
           x="159.35654"
           y="156.64505">0.0</tspan></text>
    </g>
  </g>
</svg>
